<?xml version="1.0" encoding="iso-8859-1"?>
<!-- Uploaded to: SVG Repo, www.svgrepo.com, Generator: SVG Repo Mixer Tools -->
<!DOCTYPE svg PUBLIC "-//W3C//DTD SVG 1.1//EN" "http://www.w3.org/Graphics/SVG/1.1/DTD/svg11.dtd">
<svg fill="#000000" version="1.1" id="Capa_1" xmlns="http://www.w3.org/2000/svg" xmlns:xlink="http://www.w3.org/1999/xlink" 
	 width="800px" height="800px" viewBox="0 0 108.336 108.336"
	 xml:space="preserve">
<g>
	<path d="M54.168,0C27.1,0,4.605,19.957,0.625,45.93C0.214,48.617,0,51.368,0,54.168s0.214,5.552,0.625,8.238
		c3.98,25.973,26.475,45.93,53.543,45.93c28.936,0,52.645-22.804,54.098-51.385c0.047-0.922,0.07-1.85,0.07-2.783
		c0-0.933-0.023-1.861-0.07-2.783C106.812,22.805,83.104,0,54.168,0z M5.897,69.092c-0.003-0.082-0.005-0.163-0.008-0.244
		c-0.536-0.302-0.615-0.859-0.767-1.375c-0.087-0.299-0.156-0.604-0.234-0.904c-0.201-0.928-0.926-1.641-1.058-2.598
		c-0.015-0.107-0.104-0.205-0.222-0.169c-0.23,0.074-0.129,0.257-0.123,0.421c0.027,0.754,0.158,1.5,0.219,2.25
		c-0.129-0.199-0.26-0.396-0.393-0.591c-0.768-4.006-1.23-8.044-1.032-12.135c0.185-3.828,0.753-7.597,1.698-11.327
		c0.592-2.336,1.332-4.596,2.283-6.798c0.001,0,0.001,0.001,0.001,0.001c0.11-0.453,0.28-0.885,0.503-1.295
		c0.369-0.43,0.479-0.985,0.713-1.48c0.783-1.65,1.672-3.237,2.637-4.775c0.35-0.105,0.689-0.257,1.004-0.488
		c-0.537,0.828-1.078,1.654-1.594,2.496c-0.352,0.574-0.543,1.209-0.828,1.807c-0.293,0.064-0.366,0.257-0.374,0.539
		c-0.007,0.266-0.124,0.395-0.321,0.373c0.222,0.248,0.275,0.618,0.494,0.916c0.297-0.351,0.658-0.604,0.855-1.002
		c0.407-0.817,1.014-1.49,1.599-2.172c-3.304,7.145-4.97,15.016-4.97,23.626c0,6.189,0.859,11.993,2.558,17.419
		c-0.084-0.017-0.176-0.017-0.292,0.015c-0.576,0.156-0.979-0.092-1.252-0.586c-0.234-0.426-0.484-0.832-0.937-1.072
		C5.658,69.732,5.942,69.379,5.897,69.092z M12.49,80.907c0.155,0.284,0.313,0.567,0.475,0.851c-0.291-0.09-0.375-0.41-0.469-0.671
		C12.477,81.031,12.478,80.967,12.49,80.907z"/>
</g>
</svg>