<svg xmlns="http://www.w3.org/2000/svg" viewBox="0 0 2000 2000">
<g data-hi-editor="1" data-hi-name="My Home">
<g id="bg-a6d393a1" class="hi-bg-element" data-bg-type="pavement" data-bg-edit-type="closed" data-bg-layer="40" style=""><path class="pavement" d=" M 1686.615832575682,903.1555748631072 L 1904.2436819402863,903.1555748631072 L 1904.2436819402863,1566.9205154251497 L 1686.615832575682,1566.9205154251497 Z"></path></g><g id="bg-f8619cb0" class="hi-bg-element" data-bg-type="interior-floors" data-bg-edit-type="closed" data-bg-layer="130" style=""><path class="interior-floors" d=" M 206.74645689637393,130.5767096187625 L 1675.7344401074517,141.45810208699268 L 1675.7344401074517,1838.9553271309048 L 217.62784936460412,1838.9553271309048 Z"></path></g><g id="bg-4cdff8cb" class="hi-bg-element" data-bg-type="countertops" data-bg-edit-type="closed" data-bg-layer="150" style=""><path class="countertops" d=" M 1131.6648166959415,141.45810208699268 L 1458.1065907428476,141.45810208699268 L 1458.1065907428476,250.27202676929474 L 1131.6648166959415,250.27202676929474 Z"></path></g><g id="bg-2033d146" class="hi-bg-element" data-bg-type="countertops" data-bg-edit-type="closed" data-bg-layer="150" style=""><path class="countertops" d=" M 1077.2578543547904,1327.5298811240853 L 1077.2578543547904,1697.4972250439123 L 1523.3949455522288,1697.4972250439123 L 1523.3949455522288,1458.1065907428476 L 1675.7344401074517,1458.1065907428476 L 1675.7344401074517,1838.9553271309048 L 914.0369673313373,1828.0739346626747 L 914.0369673313373,1327.5298811240853 Z"></path></g><g id="bg-aab87ea9" class="hi-bg-element" data-bg-type="shelves" data-bg-edit-type="closed" data-bg-layer="160" style=""><path class="shelves" d=" M 413.49291379274786,914.0369673313373 L 1099.020639291251,914.0369673313373 L 1099.020639291251,1001.088107077179 L 413.49291379274786,1001.088107077179 Z"></path></g><g id="bg-d3e07a39" class="hi-bg-element" data-bg-type="shelves" data-bg-edit-type="closed" data-bg-layer="160" style=""><path class="shelves" d=" M 1588.6833003616102,478.7812686021291 L 1675.7344401074517,478.7812686021291 L 1675.7344401074517,957.5625372042582 L 1588.6833003616102,957.5625372042582 Z"></path></g><g id="bg-de5285ac" class="hi-bg-element" data-bg-type="cabinets" data-bg-edit-type="closed" data-bg-layer="170" style=""><path class="cabinets" d=" M 1077.2578543547904,1773.6669723215236 L 1610.4460852980706,1773.6669723215236 L 1610.4460852980706,1458.1065907428476 L 1675.7344401074517,1458.1065907428476 L 1675.7344401074517,1838.9553271309048 L 1077.2578543547904,1838.9553271309048 Z"></path></g><g id="bg-ab37684b" class="hi-bg-element" data-bg-type="stairs" data-bg-edit-type="icon" data-bg-layer="200" transform="scale(3.331219907924473 3.331219907924473) translate(506.3057323908339, 472.9875666426297) rotate(0, 0, 0)"><path class="stairs" d="M 0,0 L 60,0 L 60,10 L 0,10 Z M 0,10 L 60,10 L 60,20 L 0,20 Z M 0,20 L 60,20 L 60,30 L 0,30 Z M 0,30 L 60,30 L 60,40 L 0,40 Z M 0,40 L 60,40 L 60,50 L 0,50 Z M 0,50 L 60,50 L 60,60 L 0,60 Z M 0,60 L 60,60 L 60,70 L 0,70 Z M 0,70 L 60,70 L 60,80 L 0,80 Z"></path><rect x="0" y="0" width="60" height="80" fill="transparent" class="hi-bg-hit-area"></rect></g><g id="bg-bc56341a" class="hi-bg-element" data-bg-type="interior-walls" data-bg-edit-type="open" data-bg-layer="210" style=""><path class="interior-wall-stroke" d=" M 217.62784936460412,1001.088107077179 L 1102.276587246477,997.750359145518 L 1102.276587246477,703.1764435882699 M 1244.8123528386939,475.11921864072286 L 892.2741823948769,478.7812686021291 L 892.2741823948769,141.45810208699268 M 1675.7344401074517,478.7812686021291 L 1425.4624133381571,478.7812686021291 M 1463.3671934134265,475.11921864072286 L 1463.3671934134265,959.7408216542602 L 1675.7344401074517,957.5625372042582 M 1111.7789716192915,475.11921864072286 L 1111.7789716192915,522.6311405047952 M 217.62784936460412,794.3416501808051 L 1099.020639291251,794.3416501808051 M 413.49291379274786,794.3416501808051 L 413.49291379274786,1001.088107077179"></path><path d=" M 217.62784936460412,1001.088107077179 L 1102.276587246477,997.750359145518 L 1102.276587246477,703.1764435882699 M 1244.8123528386939,475.11921864072286 L 892.2741823948769,478.7812686021291 L 892.2741823948769,141.45810208699268 M 1675.7344401074517,478.7812686021291 L 1425.4624133381571,478.7812686021291 M 1463.3671934134265,475.11921864072286 L 1463.3671934134265,959.7408216542602 L 1675.7344401074517,957.5625372042582 M 1111.7789716192915,475.11921864072286 L 1111.7789716192915,522.6311405047952 M 217.62784936460412,794.3416501808051 L 1099.020639291251,794.3416501808051 M 413.49291379274786,794.3416501808051 L 413.49291379274786,1001.088107077179" class="hi-bg-hit-area"></path></g><g id="bg-d168de6d" class="hi-bg-element" data-bg-type="exterior-walls" data-bg-edit-type="open" data-bg-layer="220" style=""><path class="exterior-wall-stroke" d=" M 1566.9205154251497,1294.8857037193945 L 1675.7344401074517,1294.8857037193945 L 1675.7344401074517,1838.9553271309048 L 217.62784936460412,1838.9553271309048 L 206.74645689637393,141.45810208699268 L 1675.7344401074517,141.45810208699268 L 1675.7344401074517,1109.9020317594811"></path><path d=" M 1566.9205154251497,1294.8857037193945 L 1675.7344401074517,1294.8857037193945 L 1675.7344401074517,1838.9553271309048 L 217.62784936460412,1838.9553271309048 L 206.74645689637393,141.45810208699268 L 1675.7344401074517,141.45810208699268 L 1675.7344401074517,1109.9020317594811" class="hi-bg-hit-area"></path></g><g id="bg-1b68cc27" class="hi-bg-element" data-bg-type="door-standard" data-bg-edit-type="icon" data-bg-layer="240" transform="scale(-1.8607350307897779 1.8607350307897779) translate(-901.4342250866189, 692.3913904386125) rotate(270, 0, 0)"><path class="doors" d="M 0,0 L 70.71,70.71"></path><path class="door-arcs" d="M 100,0 C 100,26.52 89.46,51.96 70.71,70.71"></path><rect x="0" y="0" width="100" height="70.71" fill="transparent" class="hi-bg-hit-area"></rect></g><g id="bg-32ec51d1" class="hi-bg-element" data-bg-type="door-standard" data-bg-edit-type="icon" data-bg-layer="240" transform="scale(1.837185174480733 1.837185174480733) translate(777.5265453342602, 260.3013775032597) rotate(185, 0, 0)"><path class="doors" d="M 0,0 L 70.71,70.71"></path><path class="door-arcs" d="M 100,0 C 100,26.52 89.46,51.96 70.71,70.71"></path><rect x="0" y="0" width="100" height="70.71" fill="transparent" class="hi-bg-hit-area"></rect></g><g id="bg-2d80d953" class="hi-bg-element" data-bg-type="door-standard" data-bg-edit-type="icon" data-bg-layer="240" transform="scale(1.8237745386431128 1.8237745386431128) translate(612.6761454199889, 285.47013379154447) rotate(95, 0, 0)"><path class="doors" d="M 0,0 L 70.71,70.71"></path><path class="door-arcs" d="M 100,0 C 100,26.52 89.46,51.96 70.71,70.71"></path><rect x="0" y="0" width="100" height="70.71" fill="transparent" class="hi-bg-hit-area"></rect></g><g id="bg-1b341362" class="hi-bg-element" data-bg-type="window-standard" data-bg-edit-type="icon" data-bg-layer="250" transform="scale(1.5958100008597527 1.5958100008597527) translate(137.73828651318732, 282.2952860641858) rotate(90, 0, 0)"><path class="windows" d="M 0,0 L 105,0 L 105,9 L 0,9 Z"></path><rect x="0" y="0" width="105" height="9" fill="transparent" class="hi-bg-hit-area"></rect></g><g id="bg-94f1c836" class="hi-bg-element" data-bg-type="window-standard" data-bg-edit-type="icon" data-bg-layer="250" transform="scale(1.7127436541570613 1.7127436541570613) translate(129.60516210695383, 693.7687693032074) rotate(90, 0, 0)"><path class="windows" d="M 0,0 L 105,0 L 105,9 L 0,9 Z"></path><rect x="0" y="0" width="105" height="9" fill="transparent" class="hi-bg-hit-area"></rect></g><g id="bg-ca002970" class="hi-bg-element" data-bg-type="window-standard" data-bg-edit-type="icon" data-bg-layer="250" transform="scale(1.8090275362071606 1.8090275362071606) translate(123.91001182977915, 771.1294197058675) rotate(90, 0, 0)"><path class="windows" d="M 0,0 L 105,0 L 105,9 L 0,9 Z"></path><rect x="0" y="0" width="105" height="9" fill="transparent" class="hi-bg-hit-area"></rect></g><g id="bg-7cdf16bc" class="hi-bg-element" data-bg-type="window-standard" data-bg-edit-type="icon" data-bg-layer="250" transform="scale(1.5079589016559942 1.5079589016559942) translate(145.7626720824235, 176.06977401022715) rotate(90, 0, 0)"><path class="windows" d="M 0,0 L 105,0 L 105,9 L 0,9 Z"></path><rect x="0" y="0" width="105" height="9" fill="transparent" class="hi-bg-hit-area"></rect></g><g id="bg-5f0dbe95" class="hi-bg-element" data-bg-type="sliding-door" data-bg-edit-type="icon" data-bg-layer="260" transform="scale(1.7612490915293437 1.7612490915293437) translate(836.2090028021884, 278.3397812410161) rotate(90, 0, 0)"><path class="sliding-doors" d="M 0,0 L 120,0 L 120,9 L 0,9 Z"></path><line class="sliding-doors-center" x1="60" y1="-2" x2="60" y2="11"></line><rect x="0" y="0" width="120" height="9" fill="transparent" class="hi-bg-hit-area"></rect></g><g id="bg-57c2ac8f" class="hi-bg-element" data-bg-type="sliding-door" data-bg-edit-type="icon" data-bg-layer="260" transform="scale(1.828526704143698 1.828526704143698) translate(806.8099824886643, 396.2672961117848) rotate(90, 0, 0)"><path class="sliding-doors" d="M 0,0 L 120,0 L 120,9 L 0,9 Z"></path><line class="sliding-doors-center" x1="60" y1="-2" x2="60" y2="11"></line><rect x="0" y="0" width="120" height="9" fill="transparent" class="hi-bg-hit-area"></rect></g><g id="bg-92407857" class="hi-bg-element" data-bg-type="sliding-door" data-bg-edit-type="icon" data-bg-layer="260" transform="scale(1 1) translate(415.66918332399786, 840.0435305394082) rotate(90, 0, 0)"><path class="sliding-doors" d="M 0,0 L 120,0 L 120,9 L 0,9 Z"></path><line class="sliding-doors-center" x1="60" y1="-2" x2="60" y2="11"></line><rect x="0" y="0" width="120" height="9" fill="transparent" class="hi-bg-hit-area"></rect></g><g id="bg-05e09c03" class="hi-bg-element" data-bg-type="sliding-door" data-bg-edit-type="icon" data-bg-layer="260" transform="scale(2.4320332654174748 2.4320332654174748) translate(181.65225976683868, 323.0368694773011) rotate(0, 0, 0)"><path class="sliding-doors" d="M 0,0 L 120,0 L 120,9 L 0,9 Z"></path><line class="sliding-doors-center" x1="60" y1="-2" x2="60" y2="11"></line><rect x="0" y="0" width="120" height="9" fill="transparent" class="hi-bg-hit-area"></rect></g><g id="bg-5416caa5" class="hi-bg-element" data-bg-type="sliding-door" data-bg-edit-type="icon" data-bg-layer="260" transform="scale(2.4014786333148215 2.4014786333148215) translate(323.52202458737816, 328.05313587566377) rotate(0, 0, 0)"><path class="sliding-doors" d="M 0,0 L 120,0 L 120,9 L 0,9 Z"></path><line class="sliding-doors-center" x1="60" y1="-2" x2="60" y2="11"></line><rect x="0" y="0" width="120" height="9" fill="transparent" class="hi-bg-hit-area"></rect></g></g>
</svg>
