<svg xmlns="http://www.w3.org/2000/svg" viewBox="0 0 2000 2000">
<g data-hi-editor="1" data-hi-name="My Home">
<g id="bg-56f1b2e7" class="hi-bg-element" data-bg-type="property-lines" data-bg-edit-type="closed" data-bg-layer="10" style=""><path class="property-lines" d=" M 21.762784936460413,32.64417740469062 L 1969.5320367496674,32.64417740469062 L 1969.5320367496674,1926.0064668767466 L 21.762784936460413,1936.8878593449767 Z" /></g><g id="bg-0f3b7c8d" class="hi-bg-element" data-bg-type="grass" data-bg-edit-type="closed" data-bg-layer="20" style=""><path class="grass" d=" M 32.64417740469062,87.05113974584165 L 1958.6506442814373,87.05113974584165 L 1969.5320367496674,1926.0064668767466 L 21.762784936460413,1936.8878593449767 Z" /></g><g id="bg-e0fafc59" class="hi-bg-element" data-bg-type="pavement" data-bg-edit-type="closed" data-bg-layer="40" style=""><path class="pavement" d=" M 696.4091179667332,1468.9879832110778 L 1468.9879832110778,1468.9879832110778 L 1468.9879832110778,1545.1577304886894 L 696.4091179667332,1545.1577304886894 Z" /></g><g id="bg-0ad769f0" class="hi-bg-element" data-bg-type="pavement" data-bg-edit-type="closed" data-bg-layer="40" style=""><path class="pavement" d=" M 500.5440535385895,511.4254460068197 L 750.8160803078842,511.4254460068197 L 750.8160803078842,587.5951932844312 L 500.5440535385895,587.5951932844312 Z" /></g><g id="bg-b4ea280f" class="hi-bg-element" data-bg-type="pavement" data-bg-edit-type="closed" data-bg-layer="40" style=""><path class="pavement" d=" M 1240.4787413782435,1545.1577304886894 L 1371.0554509970061,1545.1577304886894 L 1371.0554509970061,1926.0064668767466 L 1240.4787413782435,1926.0064668767466 Z" /></g><g id="bg-599f6384" class="hi-bg-element" data-bg-type="wood-decks" data-bg-edit-type="closed" data-bg-layer="110" style=""><path class="wood-decks" d=" M 750.8160803078842,391.7301288562874 L 1305.7670961876247,391.7301288562874 L 1305.7670961876247,576.713800816201 L 750.8160803078842,576.713800816201 Z" /></g><g id="bg-3d78cc4b" class="hi-bg-element" data-bg-type="interior-floors" data-bg-edit-type="closed" data-bg-layer="130" style=""><path class="interior-floors" d=" M 206.74645689637393,587.5951932844312 L 1762.7855798532935,587.5951932844312 L 1762.7855798532935,1468.9879832110778 L 206.74645689637393,1468.9879832110778 Z" /></g><g id="bg-8e872ed4" class="hi-bg-element" data-bg-type="countertops" data-bg-edit-type="closed" data-bg-layer="150" style=""><path class="countertops" d=" M 321.2676702071408,749.6245638166617 L 414.07833048920367,749.6245638166617 L 413.49291379274786,957.5625372042582 L 321.2676702071408,956.6637290612636 Z" /></g><g id="bg-34e7abfb" class="hi-bg-element" data-bg-type="countertops" data-bg-edit-type="closed" data-bg-layer="150" style=""><path class="countertops" d=" M 1135.1457680652306,721.067437576027 L 1213.677865226976,721.067437576027 L 1213.677865226976,842.4352240987247 L 1135.7991114492384,840.6702084742394 Z" /></g><g id="bg-72211eb6" class="hi-bg-element" data-bg-type="countertops" data-bg-edit-type="closed" data-bg-layer="150" style=""><path class="countertops" d=" M 813.840308203785,590.2578059499979 L 1135.7991114492384,590.2578059499979 L 1135.1457680652306,999.4994184222156 L 1035.1958262230091,999.4994184222156 L 1035.1958262230091,692.5103113353923 L 813.8780978580899,692.5103113353923 Z" /></g><g id="bg-2050bbd5" class="hi-bg-element" data-bg-type="shelves" data-bg-edit-type="closed" data-bg-layer="160" style=""><path class="shelves" d=" M 692.7237893902359,1128.8832123396437 L 718.3802260343186,1128.8832123396437 L 718.3802260343186,1462.41688871272 L 692.7237893902359,1462.41688871272 Z" /></g><g id="bg-d0dbad84" class="hi-bg-element" data-bg-type="cabinets" data-bg-edit-type="closed" data-bg-layer="170" style=""><path class="cabinets" d=" M 1010.5929101871176,590.2578059499979 L 1135.7991114492384,590.2578059499979 L 1135.7991114492384,617.0877062204523 L 1010.5929101871176,617.0877062204523 Z M 813.840308203785,590.2578059499979 L 885.3867089249968,590.2578059499979 L 885.3867089249968,617.0877062204523 L 813.840308203785,617.0877062204523 Z" /></g><g id="bg-6a3c801e" class="hi-bg-element" data-bg-type="interior-walls" data-bg-edit-type="open" data-bg-layer="210" style=""><path class="interior-wall-stroke" d=" M 535.4461170119013,585.421087933012 L 535.4461170119013,1006.6386999823744 M 392.66048580872757,1006.6386999823744 L 585.421087933012,1006.6386999823744 M 671.0924666549163,999.4994184222156 L 713.9281560158684,999.4994184222156 M 414.07833048920367,585.421087933012 L 414.07833048920367,956.6637290612636 L 299.8498255266647,956.6637290612636 L 299.8498255266647,1006.6386999823744 L 321.2676702071408,1006.6386999823744 M 414.07833048920367,956.6637290612636 L 414.07833048920367,1006.6386999823744 M 692.5103113353923,999.4994184222156 L 692.5103113353923,1463.55271983253 L 635.3960588541228,1463.55271983253 L 635.3960588541228,1170.842175866024 L 692.5103113353923,1170.842175866024 M 856.713787219042,999.4994184222156 L 1227.9564283472935,999.4994184222156 M 1135.1457680652306,585.421087933012 L 1135.1457680652306,999.4994184222156 M 1135.1457680652306,842.4352240987247 L 1263.6528361480869,842.4352240987247 M 1356.46349643015,592.5603694931707 L 1356.46349643015,849.5745056588834 M 1342.1849333098326,849.5745056588834 L 1377.881341110626,849.5745056588834 M 1356.46349643015,999.4994184222156 L 1356.46349643015,1470.6920013926888 M 1342.1849333098326,999.4994184222156 L 1370.7420595504673,999.4994184222156 M 1458.5552351537258,1002.3551395770097 L 1760.546847718594,1002.3551395770097 M 1760.546847718594,931.6762515299129 L 1484.2566489890337,931.6762515299129 L 1484.2566489890337,1066.6086741652796 L 1760.546847718594,1066.6086741652796 M 1458.5552351537258,848.1466565651621 L 1484.2566489890337,848.1466565651621 L 1484.2566489890337,931.6762515299129 M 413.49291379274786,783.4602577125748 L 533.1882309432801,783.4602577125748" /><path d=" M 535.4461170119013,585.421087933012 L 535.4461170119013,1006.6386999823744 M 392.66048580872757,1006.6386999823744 L 585.421087933012,1006.6386999823744 M 671.0924666549163,999.4994184222156 L 713.9281560158684,999.4994184222156 M 414.07833048920367,585.421087933012 L 414.07833048920367,956.6637290612636 L 299.8498255266647,956.6637290612636 L 299.8498255266647,1006.6386999823744 L 321.2676702071408,1006.6386999823744 M 414.07833048920367,956.6637290612636 L 414.07833048920367,1006.6386999823744 M 692.5103113353923,999.4994184222156 L 692.5103113353923,1463.55271983253 L 635.3960588541228,1463.55271983253 L 635.3960588541228,1170.842175866024 L 692.5103113353923,1170.842175866024 M 856.713787219042,999.4994184222156 L 1227.9564283472935,999.4994184222156 M 1135.1457680652306,585.421087933012 L 1135.1457680652306,999.4994184222156 M 1135.1457680652306,842.4352240987247 L 1263.6528361480869,842.4352240987247 M 1356.46349643015,592.5603694931707 L 1356.46349643015,849.5745056588834 M 1342.1849333098326,849.5745056588834 L 1377.881341110626,849.5745056588834 M 1356.46349643015,999.4994184222156 L 1356.46349643015,1470.6920013926888 M 1342.1849333098326,999.4994184222156 L 1370.7420595504673,999.4994184222156 M 1458.5552351537258,1002.3551395770097 L 1760.546847718594,1002.3551395770097 M 1760.546847718594,931.6762515299129 L 1484.2566489890337,931.6762515299129 L 1484.2566489890337,1066.6086741652796 L 1760.546847718594,1066.6086741652796 M 1458.5552351537258,848.1466565651621 L 1484.2566489890337,848.1466565651621 L 1484.2566489890337,931.6762515299129 M 413.49291379274786,783.4602577125748 L 533.1882309432801,783.4602577125748" class="hi-bg-hit-area" /></g><g id="bg-eaf78ab0" class="hi-bg-element" data-bg-type="exterior-walls" data-bg-edit-type="open" data-bg-layer="220" style=""><path class="exterior-wall-stroke" d=" M 574.5181262476289,584.8698041980365 L 207.03355900815453,584.8698041980365 L 206.74645689637393,1468.9879832110778 L 402.61152132451764,1468.9879832110778 M 1011.9694995454092,1468.9879832110778 L 1240.9726139140773,1469.889892208907 M 602.0518005559562,1468.4190257462346 L 816.1044351172654,1468.9879832110778 M 1340.3709058052534,1469.889892208907 L 1484.9502394651458,1469.889892208907 M 1523.3949455522288,587.5951932844312 L 1762.7855798532935,587.5951932844312 L 1762.0606289799398,1466.8778227576593 L 1686.7588926987457,1466.8778227576593 M 994.0664815843922,588.1126304661587 L 1425.4624133381571,587.5951932844312 M 678.0349057517061,590.0456431732404 L 892.2741823948769,587.5951932844312" /><path d=" M 574.5181262476289,584.8698041980365 L 207.03355900815453,584.8698041980365 L 206.74645689637393,1468.9879832110778 L 402.61152132451764,1468.9879832110778 M 1011.9694995454092,1468.9879832110778 L 1240.9726139140773,1469.889892208907 M 602.0518005559562,1468.4190257462346 L 816.1044351172654,1468.9879832110778 M 1340.3709058052534,1469.889892208907 L 1484.9502394651458,1469.889892208907 M 1523.3949455522288,587.5951932844312 L 1762.7855798532935,587.5951932844312 L 1762.0606289799398,1466.8778227576593 L 1686.7588926987457,1466.8778227576593 M 994.0664815843922,588.1126304661587 L 1425.4624133381571,587.5951932844312 M 678.0349057517061,590.0456431732404 L 892.2741823948769,587.5951932844312" class="hi-bg-hit-area" /></g><g id="bg-49311b97" class="hi-bg-element" data-bg-type="fencing" data-bg-edit-type="open" data-bg-layer="230" style=""><path class="fencing" d=" M 1762.7855798532935,1164.3089941006322 L 1936.8878593449767,1164.3089941006322 L 1936.8878593449767,97.93253221407186 L 43.525569872920826,97.93253221407186 L 43.525569872920826,1153.427601632402 L 206.74645689637393,1153.427601632402" /><path d=" M 1762.7855798532935,1164.3089941006322 L 1936.8878593449767,1164.3089941006322 L 1936.8878593449767,97.93253221407186 L 43.525569872920826,97.93253221407186 L 43.525569872920826,1153.427601632402 L 206.74645689637393,1153.427601632402" class="hi-bg-hit-area" /></g><g id="bg-6a1c42ce" class="hi-bg-element" data-bg-type="door-standard" data-bg-edit-type="icon" data-bg-layer="240" transform="scale(1 1) translate(1343.434443301661, 1470.0092219951305) rotate(175, 0, 0)"><path class="doors" d="M 0,0 L 70.71,70.71" /><path class="door-arcs" d="M 100,0 C 100,26.52 89.46,51.96 70.71,70.71" /><rect x="0" y="0" width="100" height="70.71" fill="transparent" class="hi-bg-hit-area" /></g><g id="bg-0149af8a" class="hi-bg-element" data-bg-type="door-standard" data-bg-edit-type="icon" data-bg-layer="240" transform="scale(1 1) translate(570.8311047986035, 588.3788974875479) rotate(0, 0, 0)"><path class="doors" d="M 0,0 L 70.71,70.71" /><path class="door-arcs" d="M 100,0 C 100,26.52 89.46,51.96 70.71,70.71" /><rect x="0" y="0" width="100" height="70.71" fill="transparent" class="hi-bg-hit-area" /></g><g id="bg-85ef6b4d" class="hi-bg-element" data-bg-type="door-standard" data-bg-edit-type="icon" data-bg-layer="240" transform="scale(0.7054358800491191 0.7054358800491191) translate(449.8739395266207, 1430.4751401800224) rotate(0, 0, 0)"><path class="doors" d="M 0,0 L 70.71,70.71" /><path class="door-arcs" d="M 100,0 C 100,26.52 89.46,51.96 70.71,70.71" /><rect x="0" y="0" width="100" height="70.71" fill="transparent" class="hi-bg-hit-area" /></g><g id="bg-edb2f1a3" class="hi-bg-element" data-bg-type="door-standard" data-bg-edit-type="icon" data-bg-layer="240" transform="scale(-0.8234809714326543 0.8234809714326543) translate(-257.56443409614195, 1214.1984439205394) rotate(170, 0, 0)"><path class="doors" d="M 0,0 L 70.71,70.71" /><path class="door-arcs" d="M 100,0 C 100,26.52 89.46,51.96 70.71,70.71" /><rect x="0" y="0" width="100" height="70.71" fill="transparent" class="hi-bg-hit-area" /></g><g id="bg-52df8954" class="hi-bg-element" data-bg-type="door-standard" data-bg-edit-type="icon" data-bg-layer="240" transform="scale(-0.8806400702030412 0.8806400702030412) translate(-766.7655284599324, 1133.8472673570027) rotate(5, 0, 0)"><path class="doors" d="M 0,0 L 70.71,70.71" /><path class="door-arcs" d="M 100,0 C 100,26.52 89.46,51.96 70.71,70.71" /><rect x="0" y="0" width="100" height="70.71" fill="transparent" class="hi-bg-hit-area" /></g><g id="bg-97d4d3aa" class="hi-bg-element" data-bg-type="door-standard" data-bg-edit-type="icon" data-bg-layer="240" transform="scale(0.7833497464347192 0.7833497464347192) translate(1715.6754495345706, 1082.3480058807477) rotate(180, 0, 0)"><path class="doors" d="M 0,0 L 70.71,70.71" /><path class="door-arcs" d="M 100,0 C 100,26.52 89.46,51.96 70.71,70.71" /><rect x="0" y="0" width="100" height="70.71" fill="transparent" class="hi-bg-hit-area" /></g><g id="bg-837a1bec" class="hi-bg-element" data-bg-type="door-standard" data-bg-edit-type="icon" data-bg-layer="240" transform="scale(-0.7821939836383923 0.7821939836383923) translate(-1757.004207878986, 1083.878371113345) rotate(175, 0, 0)"><path class="doors" d="M 0,0 L 70.71,70.71" /><path class="door-arcs" d="M 100,0 C 100,26.52 89.46,51.96 70.71,70.71" /><rect x="0" y="0" width="100" height="70.71" fill="transparent" class="hi-bg-hit-area" /></g><g id="bg-bef2f166" class="hi-bg-element" data-bg-type="door-standard" data-bg-edit-type="icon" data-bg-layer="240" transform="scale(0.8634680756134355 0.8634680756134355) translate(1586.4922142563114, 1162.336305072444) rotate(0, 0, 0)"><path class="doors" d="M 0,0 L 70.71,70.71" /><path class="door-arcs" d="M 100,0 C 100,26.52 89.46,51.96 70.71,70.71" /><rect x="0" y="0" width="100" height="70.71" fill="transparent" class="hi-bg-hit-area" /></g><g id="bg-77d6d99c" class="hi-bg-element" data-bg-type="window-standard" data-bg-edit-type="icon" data-bg-layer="250" transform="scale(1 1) translate(888.3283305964862, 584.0696798834977) rotate(0, 0, 0)"><path class="windows" d="M 0,0 L 105,0 L 105,9 L 0,9 Z" /><rect x="0" y="0" width="105" height="9" fill="transparent" class="hi-bg-hit-area" /></g><g id="bg-4502af03" class="hi-bg-element" data-bg-type="window-standard" data-bg-edit-type="icon" data-bg-layer="250" transform="scale(1 1) translate(1423.1382720557158, 584.013039453767) rotate(0, 0, 0)"><path class="windows" d="M 0,0 L 105,0 L 105,9 L 0,9 Z" /><rect x="0" y="0" width="105" height="9" fill="transparent" class="hi-bg-hit-area" /></g><g id="bg-27c5b1f4" class="hi-bg-element" data-bg-type="window-standard" data-bg-edit-type="icon" data-bg-layer="250" transform="scale(1 1) translate(394.27969140821125, 1463.4218567234573) rotate(0, 0, 0)"><path class="windows" d="M 0,0 L 105,0 L 105,9 L 0,9 Z" /><rect x="0" y="0" width="105" height="9" fill="transparent" class="hi-bg-hit-area" /></g><g id="bg-7638c539" class="hi-bg-element" data-bg-type="window-standard" data-bg-edit-type="icon" data-bg-layer="250" transform="scale(1 1) translate(498.50010397456776, 1463.4219083204023) rotate(0, 0, 0)"><path class="windows" d="M 0,0 L 105,0 L 105,9 L 0,9 Z" /><rect x="0" y="0" width="105" height="9" fill="transparent" class="hi-bg-hit-area" /></g><g id="bg-5363d97c" class="hi-bg-element" data-bg-type="window-standard" data-bg-edit-type="icon" data-bg-layer="250" transform="scale(1 1) translate(811.9937157645256, 1464.5908881152973) rotate(0, 0, 0)"><path class="windows" d="M 0,0 L 105,0 L 105,9 L 0,9 Z" /><rect x="0" y="0" width="105" height="9" fill="transparent" class="hi-bg-hit-area" /></g><g id="bg-77ea9b7e" class="hi-bg-element" data-bg-type="window-standard" data-bg-edit-type="icon" data-bg-layer="250" transform="scale(1 1) translate(916.6674775218518, 1464.1326354237362) rotate(0, 0, 0)"><path class="windows" d="M 0,0 L 105,0 L 105,9 L 0,9 Z" /><rect x="0" y="0" width="105" height="9" fill="transparent" class="hi-bg-hit-area" /></g><g id="bg-654adcb5" class="hi-bg-element" data-bg-type="window-standard" data-bg-edit-type="icon" data-bg-layer="250" transform="scale(1 1) translate(1482.7244608460505, 1464.4419162491176) rotate(0, 0, 0)"><path class="windows" d="M 0,0 L 105,0 L 105,9 L 0,9 Z" /><rect x="0" y="0" width="105" height="9" fill="transparent" class="hi-bg-hit-area" /></g><g id="bg-3ed534c0" class="hi-bg-element" data-bg-type="window-standard" data-bg-edit-type="icon" data-bg-layer="250" transform="scale(1 1) translate(1584.3485355529924, 1464.4681454830954) rotate(0, 0, 0)"><path class="windows" d="M 0,0 L 105,0 L 105,9 L 0,9 Z" /><rect x="0" y="0" width="105" height="9" fill="transparent" class="hi-bg-hit-area" /></g><g id="bg-763f4e6d" class="hi-bg-element" data-bg-type="sliding-door" data-bg-edit-type="icon" data-bg-layer="260" transform="scale(1.4511318287257404 1.4511318287257404) translate(374.7248255017258, 412.0498227844541) rotate(90, 0, 0)"><path class="sliding-doors" d="M 0,0 L 120,0 L 120,9 L 0,9 Z" /><line class="sliding-doors-center" x1="60" y1="-2" x2="60" y2="11" /><rect x="0" y="0" width="120" height="9" fill="transparent" class="hi-bg-hit-area" /></g><g id="bg-465d5dee" class="hi-bg-element" data-bg-type="sliding-door" data-bg-edit-type="icon" data-bg-layer="260" transform="scale(1.6036416776108073 1.6036416776108073) translate(339.1426910268911, 499.5569239009369) rotate(90, 0, 0)"><path class="sliding-doors" d="M 0,0 L 120,0 L 120,9 L 0,9 Z" /><line class="sliding-doors-center" x1="60" y1="-2" x2="60" y2="11" /><rect x="0" y="0" width="120" height="9" fill="transparent" class="hi-bg-hit-area" /></g><g id="bg-2396bd3e" class="hi-bg-element" data-bg-type="sliding-door" data-bg-edit-type="icon" data-bg-layer="260" transform="scale(1.8003118890714143 1.8003118890714143) translate(355.68300032894217, 672.6183064423602) rotate(90, 0, 0)"><path class="sliding-doors" d="M 0,0 L 120,0 L 120,9 L 0,9 Z" /><line class="sliding-doors-center" x1="60" y1="-2" x2="60" y2="11" /><rect x="0" y="0" width="120" height="9" fill="transparent" class="hi-bg-hit-area" /></g><g id="bg-0e568348" class="hi-bg-element" data-bg-type="sliding-door" data-bg-edit-type="icon" data-bg-layer="260" transform="scale(1.3026996312489676 1.3026996312489676) translate(923.4647384361836, 646.4697536197046) rotate(90, 0, 0)"><path class="sliding-doors" d="M 0,0 L 120,0 L 120,9 L 0,9 Z" /><line class="sliding-doors-center" x1="60" y1="-2" x2="60" y2="11" /><rect x="0" y="0" width="120" height="9" fill="transparent" class="hi-bg-hit-area" /></g><g id="bg-bf5bb0a8" class="hi-bg-element" data-bg-type="sliding-door" data-bg-edit-type="icon" data-bg-layer="260" transform="scale(1.7051106170326136 1.7051106170326136) translate(888.8138362861508, 542.4325110472302) rotate(0, 0, 0)"><path class="sliding-doors" d="M 0,0 L 120,0 L 120,9 L 0,9 Z" /><line class="sliding-doors-center" x1="60" y1="-2" x2="60" y2="11" /><rect x="0" y="0" width="120" height="9" fill="transparent" class="hi-bg-hit-area" /></g><g id="bg-e7d595ad" class="hi-bg-element" data-bg-type="sliding-door" data-bg-edit-type="icon" data-bg-layer="260" transform="scale(1.7262818715897663 1.7262818715897663) translate(877.416655488979, 613.0003202710542) rotate(0, 0, 0)"><path class="sliding-doors" d="M 0,0 L 120,0 L 120,9 L 0,9 Z" /><line class="sliding-doors-center" x1="60" y1="-2" x2="60" y2="11" /><rect x="0" y="0" width="120" height="9" fill="transparent" class="hi-bg-hit-area" /></g>
</g>

</svg>
