<?xml version="1.0" encoding="UTF-8"?>
<svg xmlns="http://www.w3.org/2000/svg" viewBox="0 0 24 24">
  <!-- House outline with overhang -->
  <polygon points="12,2 2,10 3,10 3,20 21,20 21,10 22,10" fill="none" stroke="#177072" stroke-width="1.5"/>
  <line x1="2" y1="10" x2="22" y2="10" stroke="#177072" stroke-width="1.5"/>
  
  <!-- Gear inside (based on standard gear icon) -->
  <g transform="translate(12, 14) scale(0.5)">
    <!-- Gear teeth using standard design -->
    <path d="M 7.2,0 L 8.8,0 L 9.5,2.1 L 11.3,3 L 13.4,2.3 L 14.6,3.4 L 13.7,5.6 L 14.6,7.4 L 16.7,8.1 L 16.7,9.9 L 14.6,10.6 L 13.7,12.4 L 14.6,14.6 L 13.4,15.7 L 11.3,15 L 9.5,15.9 L 8.8,18 L 7.2,18 L 6.5,15.9 L 4.7,15 L 2.6,15.7 L 1.4,14.6 L 2.3,12.4 L 1.4,10.6 L -0.7,9.9 L -0.7,8.1 L 1.4,7.4 L 2.3,5.6 L 1.4,3.4 L 2.6,2.3 L 4.7,3 L 6.5,2.1 L 7.2,0 Z" 
          fill="#F45F36" transform="translate(-8,-9)"/>
    <!-- Center hole -->
    <circle cx="0" cy="0" r="3" fill="white"/>
  </g>
</svg>