<?xml version="1.0" encoding="utf-8"?>
<svg xmlns="http://www.w3.org/2000/svg" viewBox="0 0 2000 2000">
<g data-hi-editor="1">

  <defs>
    <g id="hi-door-standard">
      <path class="doors" d="M 0,0 L 70.71,70.71" />
      <path class="door-arcs" d="M 100,0 C 100,26.52 89.46,51.96 70.71,70.71" />
    </g>
    <g id="hi-window-standard">
      <path class="windows" d="M 0,0 L 105,0 L 105,9 L 0,9 Z" />
    </g>
  </defs>

  <!-- Layer 1: Ground/exterior areas -->
  <g id="bg-0a22b215" class="hi-bg-element" data-bg-type="grass">
    <path class="grass" d="M 64.00,81.00 C 64.00,81.00 1905.00,78.00 1905.00,78.00 1905.00,78.00 1905.00,1903.00 1905.00,1903.00 1905.00,1903.00 64.00,1907.00 65.00,1906.00 66.00,1905.00 64.00,81.00 64.00,81.00 Z" />
  </g>

  <!-- Layer 2: Pavement -->
  <g id="bg-2cf1eea5" class="hi-bg-element" data-bg-type="pavement">
    <path class="pavement" d="M 926.25,1605.50 C 926.25,1605.50 1077.00,1605.25 1077.00,1605.25 1077.00,1605.25 1077.00,1922.00 1077.00,1922.00 1077.00,1922.00 924.50,1925.25 924.25,1924.75 924.50,1925.00 926.25,1605.50 926.25,1605.50 Z" />
  </g>
  <g id="bg-7a1e950d" class="hi-bg-element" data-bg-type="pavement">
    <path class="pavement" d="M 805.33,483.33 C 805.33,483.33 1194.67,483.00 1194.67,483.00 1194.67,483.00 1194.00,611.00 1194.00,611.00 1194.00,611.00 805.67,611.33 804.67,610.33 803.67,609.33 805.33,483.33 805.33,483.33 Z" />
  </g>

  <!-- Layer 3: Floors -->
  <g id="bg-e8b66f5d" class="hi-bg-element" data-bg-type="interior-floors">
    <path class="interior-floors" d="M 153.00,618.00 C 153.00,618.00 1853.00,620.00 1853.00,620.00 1853.00,620.00 1852.00,1599.00 1852.00,1599.00 1852.00,1599.00 154.00,1596.00 154.00,1596.00 154.00,1596.00 153.00,618.00 153.00,618.00 Z" />
  </g>

  <!-- Layer 4: Walls -->
  <g id="bg-feae6a4f" class="hi-bg-element" data-bg-type="exterior-walls">
    <path class="exterior-walls" d="M 536.25,1589.75 C 536.25,1589.75 553.75,1589.50 553.75,1589.50 553.75,1589.50 553.50,1604.25 553.50,1604.25 553.50,1604.25 535.75,1603.50 535.75,1603.50 535.75,1603.50 536.25,1589.75 536.25,1589.75 Z" />
  </g>
  <g id="bg-5b1bba2f" class="hi-bg-element" data-bg-type="exterior-walls">
    <path class="exterior-walls" d="M 1445.75,1588.50 C 1445.75,1588.50 1463.75,1588.25 1463.75,1588.25 1463.75,1588.25 1463.75,1604.00 1463.75,1604.00 1463.75,1604.00 1446.00,1603.50 1446.00,1603.50 1446.00,1603.50 1445.75,1588.50 1445.75,1588.50 Z" />
  </g>
  <g id="bg-2bd13519" class="hi-bg-element" data-bg-type="exterior-walls">
    <path class="exterior-walls" d="M 1844.00,1025.15 C 1844.00,1025.15 1844.00,626.00 1844.00,626.00 1844.00,626.00 1507.46,627.49 1507.46,627.49 1507.46,627.49 1507.26,609.42 1507.26,609.42 1507.26,609.42 1859.00,608.00 1859.00,608.00 1859.00,608.00 1859.42,1024.92 1859.42,1024.92 1859.42,1024.92 1844.00,1025.15 1844.00,1025.15 Z" />
  </g>
  <g id="bg-6e0a3d39" class="hi-bg-element" data-bg-type="exterior-walls">
    <path class="exterior-walls" d="M 592.18,610.27 C 592.18,610.27 944.50,610.75 944.50,610.75 944.50,610.75 945.00,629.50 945.00,629.50 945.00,629.50 592.07,627.93 592.07,627.93 592.07,627.93 592.18,610.27 592.18,610.27 Z" />
  </g>
  <g id="bg-de8ea3d0" class="hi-bg-element" data-bg-type="exterior-walls">
    <path class="exterior-walls" d="M 653.50,1589.75 C 653.50,1589.75 946.00,1589.00 946.00,1589.00 946.00,1589.00 945.75,1606.00 945.75,1606.00 945.75,1606.00 654.00,1607.00 654.00,1607.00 654.00,1607.00 653.50,1589.75 653.50,1589.75 Z" />
  </g>
  <g id="bg-938b21b1" class="hi-bg-element" data-bg-type="exterior-walls">
    <path class="exterior-walls" d="M 1408.14,627.93 C 1408.14,627.93 1055.00,629.50 1055.00,629.50 1055.00,629.50 1054.75,611.25 1054.75,611.25 1054.75,611.25 1408.39,609.82 1408.39,609.82 1408.39,609.82 1408.14,627.93 1408.14,627.93 Z" />
  </g>
  <g id="bg-2e9b08a1" class="hi-bg-element" data-bg-type="exterior-walls">
    <path class="exterior-walls" d="M 1564.25,1589.00 C 1564.25,1589.00 1844.00,1589.50 1844.00,1589.50 1844.00,1589.50 1844.00,1124.66 1844.00,1124.66 1844.00,1124.66 1859.50,1124.75 1859.50,1124.75 1859.50,1124.75 1860.00,1607.41 1860.00,1607.00 1860.00,1606.82 1563.67,1606.45 1563.67,1606.45 1563.67,1606.45 1564.25,1589.00 1564.25,1589.00 Z" />
  </g>
  <g id="bg-6ba0f78b" class="hi-bg-element" data-bg-type="exterior-walls">
    <path class="exterior-walls" d="M 1346.25,1606.00 C 1346.25,1606.00 1054.50,1606.00 1054.50,1606.00 1054.50,1606.00 1055.00,1588.00 1055.00,1588.00 1055.00,1588.00 1346.75,1589.50 1346.75,1589.50 1346.75,1589.50 1346.25,1606.00 1346.25,1606.00 Z" />
  </g>
  <g id="bg-9a42af9e" class="hi-bg-element" data-bg-type="exterior-walls">
    <path class="exterior-walls" d="M 142.25,1025.00 C 142.25,1025.00 142.00,609.67 142.00,609.67 142.00,609.67 492.94,610.14 492.94,610.14 492.94,610.14 493.03,627.49 493.03,627.49 493.03,627.49 157.00,626.00 157.00,626.00 157.00,626.00 158.24,1024.67 158.24,1024.67 158.24,1024.67 142.25,1025.00 142.25,1025.00 Z" />
  </g>
  <g id="bg-ba5c5b8e" class="hi-bg-element" data-bg-type="exterior-walls">
    <path class="exterior-walls" d="M 158.55,1124.14 C 158.55,1124.14 160.00,1590.00 160.00,1590.00 160.00,1590.00 435.85,1589.65 435.85,1589.65 435.85,1589.65 436.00,1606.50 436.00,1606.50 436.00,1606.50 141.04,1607.33 141.33,1607.33 142.15,1607.33 142.50,1124.25 142.50,1124.25 142.50,1124.25 158.55,1124.14 158.55,1124.14 Z" />
  </g>

  <!-- Layer 5: Openings -->
  <g id="bg-8d83315b" class="hi-bg-element" data-bg-type="door-standard"
     transform="translate(1055,626) scale(-1.1,1.1)">
    <path class="doors" d="M 0,0 L 70.71,70.71" />
    <path class="door-arcs" d="M 100,0 C 100,26.52 89.46,51.96 70.71,70.71" />
    <rect x="0" y="0" width="100" height="71" fill="transparent" class="hi-bg-hit-area" />
  </g>
  <g id="bg-c576f9a5" class="hi-bg-element" data-bg-type="door-standard"
     transform="translate(946,1594) scale(1.1,-1.1)">
    <path class="doors" d="M 0,0 L 70.71,70.71" />
    <path class="door-arcs" d="M 100,0 C 100,26.52 89.46,51.96 70.71,70.71" />
    <rect x="0" y="0" width="100" height="71" fill="transparent" class="hi-bg-hit-area" />
  </g>
  <g id="bg-006cba1c" class="hi-bg-element" data-bg-type="window-standard"
     transform="translate(149.4,1126.6) rotate(-90)">
    <path class="windows" d="M 0,0 L 105,0 L 105,9 L 0,9 Z" />
    <rect x="0" y="0" width="105" height="9" fill="transparent" class="hi-bg-hit-area" />
  </g>
  <g id="bg-a4d604ae" class="hi-bg-element" data-bg-type="window-standard"
     transform="translate(490.1,618.8)">
    <path class="windows" d="M 0,0 L 105,0 L 105,9 L 0,9 Z" />
    <rect x="0" y="0" width="105" height="9" fill="transparent" class="hi-bg-hit-area" />
  </g>
  <g id="bg-f0e18a68" class="hi-bg-element" data-bg-type="window-standard"
     transform="translate(1405.6,618.9)">
    <path class="windows" d="M 0,0 L 105,0 L 105,9 L 0,9 Z" />
    <rect x="0" y="0" width="105" height="9" fill="transparent" class="hi-bg-hit-area" />
  </g>
  <g id="bg-cc0b47a2" class="hi-bg-element" data-bg-type="window-standard"
     transform="translate(1843.4,1127.0) rotate(-90)">
    <path class="windows" d="M 0,0 L 105,0 L 105,9 L 0,9 Z" />
    <rect x="0" y="0" width="105" height="9" fill="transparent" class="hi-bg-hit-area" />
  </g>
  <g id="bg-97c5cd15" class="hi-bg-element" data-bg-type="window-standard"
     transform="translate(1461.4,1588.9)">
    <path class="windows" d="M 0,0 L 105,0 L 105,9 L 0,9 Z" />
    <rect x="0" y="0" width="105" height="9" fill="transparent" class="hi-bg-hit-area" />
  </g>
  <g id="bg-1c5bcb76" class="hi-bg-element" data-bg-type="window-standard"
     transform="translate(1343.2,1589.4)">
    <path class="windows" d="M 0,0 L 105,0 L 105,9 L 0,9 Z" />
    <rect x="0" y="0" width="105" height="9" fill="transparent" class="hi-bg-hit-area" />
  </g>
  <g id="bg-237e5409" class="hi-bg-element" data-bg-type="window-standard"
     transform="translate(433.8,1589.2)">
    <path class="windows" d="M 0,0 L 105,0 L 105,9 L 0,9 Z" />
    <rect x="0" y="0" width="105" height="9" fill="transparent" class="hi-bg-hit-area" />
  </g>
  <g id="bg-ad8eaed6" class="hi-bg-element" data-bg-type="window-standard"
     transform="translate(551.6,1589.1)">
    <path class="windows" d="M 0,0 L 105,0 L 105,9 L 0,9 Z" />
    <rect x="0" y="0" width="105" height="9" fill="transparent" class="hi-bg-hit-area" />
  </g>

  <!-- Layer 6: Property lines -->
  <g id="bg-575a51e2" class="hi-bg-element" data-bg-type="property-lines">
    <path class="property-lines" d="M 64.00,81.00 C 64.00,81.00 1905.00,78.00 1905.00,78.00 1905.00,78.00 1905.00,1903.00 1905.00,1903.00 1905.00,1903.00 64.00,1907.00 65.00,1906.00 66.00,1905.00 64.00,81.00 64.00,81.00 Z" />
  </g>

</g>
</svg>
